<svg xmlns="http://www.w3.org/2000/svg" xmlns:xlink="http://www.w3.org/1999/xlink" width="408.24" height="168.322" viewBox="0 0 408.24 168.322">
  <defs>
    <linearGradient id="linear-gradient" x1="0.21" y1="0.73" x2="0.788" y2="-0.218" gradientUnits="objectBoundingBox">
      <stop offset="0" stop-color="#fff"/>
      <stop offset="1" stop-opacity="0.251"/>
    </linearGradient>
  </defs>
  <g id="Nuvem" transform="translate(0 -0.032)">
    <g id="Grupo_68" data-name="Grupo 68" transform="translate(14.297 14.262)" opacity="0.5">
      <g id="Grupo_67" data-name="Grupo 67">
        <path id="Caminho_11421" data-name="Caminho 11421" d="M260.175,106.684A54.276,54.276,0,0,0,192.86,53.666,77.05,77.05,0,0,0,45.523,75.906,42.8,42.8,0,0,0,7.2,118.4h0A42.8,42.8,0,0,0,49.892,161.29H208.547a42.614,42.614,0,0,0,22.438-6.354A54.543,54.543,0,0,0,260.175,106.684Z" transform="translate(-7.2 -7.199)" fill="url(#linear-gradient)"/>
      </g>
    </g>
    <path id="Caminho_11422" data-name="Caminho 11422" d="M174.9,81.9v-8.34h3.773V71.573H174.9V67.8h-.6a1.73,1.73,0,0,0-1.589,1.191h0V82.3c0,2.78,1.191,3.971,3.773,3.971h1.39V84.281h-1.191c-1.191,0-1.787-.993-1.787-2.383M243.41,67.8h-.6a1.51,1.51,0,0,0-1.589,1.191h0V82.3c0,2.78,1.191,3.971,3.773,3.971h1.39V84.281H245c-1.191,0-1.787-.993-1.787-2.383v-8.34h3.971V71.573h-3.971l.2-3.773Zm-37.926,3.574H202.7c-2.581,0-3.773,1.39-3.773,3.971V86.068h1.986V75.544c0-1.39.6-2.184,1.787-2.184h2.581l.2-1.986Zm13.5-2.184v2.383h-3.971a7.347,7.347,0,1,0,0,14.694h5.957V67.8h-.6c-.794,0-1.589.6-1.39,1.39m-.2,15.091h-3.574a5.361,5.361,0,1,1,0-10.723h3.574Zm37.926-12.907a7.556,7.556,0,0,0,0,15.091h5.957V71.573h-5.957Zm3.773,12.907h-3.376a5.376,5.376,0,0,1-.794-10.723h3.971V84.281ZM154.253,71.374a7.556,7.556,0,0,0,0,15.091h5.957V71.573h-5.957Zm3.773,12.907h-3.177a5.376,5.376,0,0,1-.794-10.723h3.971Zm29.984-12.708a7.358,7.358,0,0,0,0,14.694h5.163V84.281h-5.163a5.152,5.152,0,0,1-4.964-4.766h12.113v-.6a7.422,7.422,0,0,0-7.148-7.347h0m-4.964,5.957a5.094,5.094,0,0,1,5.758-4.17,5.3,5.3,0,0,1,4.17,4.17ZM165.968,82.3V67.8h-.794a1.45,1.45,0,0,0-1.39,1.191h0v13.7c0,2.383,1.191,3.574,3.376,3.574h1.787V84.281h-1.589c-.993,0-1.39-.6-1.39-1.986m58.577-3.574a7.6,7.6,0,0,0,7.148,7.546h5.957V71.573h-5.957a7.383,7.383,0,0,0-7.148,7.148m10.921-5.163V84.281h-3.376a5.361,5.361,0,0,1,0-10.723h3.376Z" transform="translate(144.988 66.797)" fill="#fff"/>
    <g id="Grupo_69" data-name="Grupo 69" transform="translate(0 0.032)">
      <path id="Caminho_11423" data-name="Caminho 11423" d="M205.319,161.8H46.663a46.621,46.621,0,0,1-8.141-92.532A81.109,81.109,0,0,1,148.528,5.727a80.033,80.033,0,0,1,43.089,40.309,61,61,0,0,1,10.524-.993h.2a58.1,58.1,0,0,1,36.934,13.3,3.954,3.954,0,1,1-4.964,6.156A50.887,50.887,0,0,0,202.34,52.986h-.2a48.815,48.815,0,0,0-11.914,1.39l-3.177.794-1.39-2.979C169.974,14.861,126.686-2.216,89.752,13.67A73.515,73.515,0,0,0,46.068,72.843l-.4,3.376-3.177.4A38.578,38.578,0,0,0,7.943,115.138a38.982,38.982,0,0,0,38.919,38.919H205.517a38.622,38.622,0,0,0,20.254-5.758,3.883,3.883,0,0,1,4.17,6.553A47.121,47.121,0,0,1,205.319,161.8Z" transform="translate(0 -0.032)" fill="#00dbff"/>
    </g>
    <path id="Caminho_11424" data-name="Caminho 11424" d="M131.044,87.95A22.119,22.119,0,0,1,109,65.909V39.5h6.95V65.909a15.3,15.3,0,0,0,30.579,0V39.5h6.95V65.909A22.729,22.729,0,0,1,131.044,87.95Zm79.03-48.45L192.4,87.95H181.083L163.411,39.5h7.347l16.084,43.685L202.727,39.5Zm11.914,26.608a16.69,16.69,0,0,0,5.56,10.921,16.3,16.3,0,0,0,11.12,4.368h17.474v6.751H238.668A22.976,22.976,0,0,1,221.988,81a24.709,24.709,0,0,1,0-34.154,23.253,23.253,0,0,1,32.962-.6l.6.6a23.224,23.224,0,0,1,6.95,17.077,8.146,8.146,0,0,1-.2,2.184Zm33.558-6.751a16.579,16.579,0,0,0-6.156-9.333,16.948,16.948,0,0,0-27.005,9.333ZM332.391,39.5a22.119,22.119,0,0,1,22.041,22.041h0V87.95h-6.751V61.541a15.29,15.29,0,1,0-30.579,0V87.95h-6.95V61.541a15.344,15.344,0,0,0-4.368-10.723,15.1,15.1,0,0,0-21.445,0,15.538,15.538,0,0,0-4.567,10.723V87.95H273.02V61.541A21.991,21.991,0,0,1,295.061,39.5a23.478,23.478,0,0,1,10.921,2.78,22.224,22.224,0,0,1,7.943,7.546,22.223,22.223,0,0,1,7.943-7.546,21.359,21.359,0,0,1,10.524-2.78Zm-255.953,0A22.119,22.119,0,0,1,98.479,61.541V87.95h-6.95V61.541A15.3,15.3,0,1,0,60.95,60.35v27.6H54V61.541A22.463,22.463,0,0,1,76.438,39.5Z" transform="translate(53.226 38.903)" fill="#fff" stroke="#fff" stroke-width="1.162"/>
  </g>
</svg>
